#!OML:ASF I:\golf\golf\golf 2\Subject 1\2002-09-07\Subject1.ASF
:FULLY-SPECIFIED
:DEGREES
507
root 1.45647 17.7383 -5.6435 4.68573 1.46977 -6.28022
lowerback -5.01693 1.62189 -2.63359
upperback -0.902658 2.24646 2.93559
thorax 1.66193 1.10841 4.65343
lowerneck -23.2076 -4.40496 -2.43098
upperneck 21.835 -5.78631 1.81371
head 11.0246 -2.59893 0.127807
rclavicle 7.56624e-015 3.12092e-014
rhumerus -35.2338 -16.421 -71.2765
rradius 23.8224
rwrist -4.46127
rhand -19.3444 5.79751
rfingers 7.12502
rthumb 6.97269 -24.0676
lclavicle 7.56624e-015 3.12092e-014
lhumerus -30.656 17.8057 76.3245
lradius 20.2734
lwrist -3.21395
lhand -11.3564 27.6539
lfingers 7.12502
lthumb 14.6771 57.1144
rfemur -16.8654 -2.72703 20.0677
rtibia 38.0324
rfoot -14.636 -10.6963
rtoes -4.53785
lfemur -14.2085 3.19113 -15.5658
ltibia 35.3773
lfoot -20.9516 5.3478
ltoes -6.83673
508
root 1.43293 17.739 -5.6417 4.8571 1.31221 -6.36848
lowerback -5.24524 1.72467 -2.53466
upperback -1.03297 2.38292 2.91496
thorax 1.64652 1.1797 4.58947
lowerneck -23.1714 -4.45028 -2.36808
upperneck 22.0275 -5.85375 1.71661
head 11.0856 -2.63516 0.0700831
rclavicle -7.74018e-015 8.54774e-015
rhumerus -34.8608 -16.0759 -71.6017
rradius 23.696
rwrist -4.43786
rhand -19.4849 5.62341
rfingers 7.12502
rthumb 6.83707 -24.2462
lclavicle -7.74018e-015 8.54774e-015
lhumerus -30.5395 17.7587 76.1668
lradius 20.3694
lwrist -3.15028
lhand -11.7147 28.0098
lfingers 7.12502
lthumb 14.332 57.4951
rfemur -16.6393 -2.8774 20.26
rtibia 37.2997
rfoot -14.9417 -10.4288
rtoes -3.68867
lfemur -14.391 3.33467 -15.3875
ltibia 35.4247
lfoot -20.9593 5.29642
ltoes -6.71364
509
root 1.40698 17.7392 -5.63901 5.00945 1.18927 -6.46424
lowerback -5.2903 1.78855 -2.35317
upperback -1.25115 2.46202 2.8545
thorax 1.4495 1.22748 4.42444
lowerneck -23.0572 -4.46685 -2.34271
upperneck 22.2214 -5.89778 1.7226
head 11.1372 -2.65137 0.061157
rclavicle 3.58185e-014 9.93923e-016
rhumerus -34.6789 -15.6114 -72.0405
rradius 23.8274
rwrist -4.35013
rhand -19.4584 5.29218
rfingers 7.12502
rthumb 6.86264 -24.5766
lclavicle 3.58185e-014 9.93923e-016
lhumerus -30.6036 17.8997 75.8045
lradius 20.486
lwrist -3.14648
lhand -11.9841 28.2752
lfingers 7.12502
lthumb 14.0724 57.7788
rfemur -16.4324 -3.03245 20.4827
rtibia 36.6478
rfoot -15.2169 -10.3137
rtoes -4.16744
lfemur -14.5375 3.50049 -15.1823
ltibia 35.4485
lfoot -21.0466 5.11563
ltoes -6.05874
510
root 1.37758 17.7406 -5.63595 5.13255 1.09125 -6.55865
lowerback -5.42598 1.80245 -2.25361
upperback -1.36705 2.47738 2.87297
thorax 1.40778 1.23805 4.39087
lowerneck -23.1011 -4.43878 -2.43485
upperneck 22.4371 -5.84104 1.75594
head 11.2295 -2.62642 0.0943176
rclavicle -4.93887e-014 -2.10712e-014
rhumerus -34.3921 -15.0655 -72.4361
rradius 24.0396
rwrist -4.1988
rhand -19.2171 4.86139
rfingers 7.12502
rthumb 7.09564 -24.9997
lclavicle -4.93887e-014 -2.10712e-014
lhumerus -30.6006 18.411 75.438
lradius 20.5743
lwrist -3.28246
lhand -11.7071 28.3089
lfingers 7.12502
lthumb 14.3392 57.7937
rfemur -16.271 -3.19458 20.7362
rtibia 36.143
rfoot -15.4465 -10.3381
rtoes -5.57516
lfemur -14.607 3.59255 -14.9615
ltibia 35.3831
lfoot -21.0984 5.0182
ltoes -5.61794
511
root 1.34213 17.742 -5.64746 5.24706 1.04826 -6.28848
lowerback -5.65934 1.78886 -2.77197
upperback -1.31495 2.49034 2.92398
thorax 1.56545 1.23946 4.74977
lowerneck -23.2556 -4.43247 -2.55911
upperneck 22.5482 -5.76315 1.67202
head 11.2996 -2.61018 0.0924305
rclavicle -4.99446e-015 -1.51076e-014
rhumerus -33.8351 -14.6908 -72.6398
rradius 24.1517
rwrist -4.17593
rhand -18.9062 5.23265
rfingers 7.12502
rthumb 7.39573 -24.6181
lclavicle -4.99446e-015 -1.51076e-014
lhumerus -30.2936 18.8602 75.4364
lradius 20.6669
lwrist -3.11124
lhand -11.6931 28.3054
lfingers 7.12502
lthumb 14.3527 57.7892
rfemur -16.2421 -3.23699 20.6251
rtibia 35.7453
rfoot -15.685 -10.3933
rtoes -5.42947
lfemur -14.7258 3.53927 -15.1148
ltibia 35.2295
lfoot -20.9276 5.04225
ltoes -5.95571
512
root 1.3036 17.737 -5.66835 5.18587 0.99674 -5.39121
lowerback -4.99887 1.75209 -3.70597
upperback -1.58179 2.48399 2.58922
thorax 0.896297 1.25645 4.89519
lowerneck -23.1863 -4.37037 -2.41469
upperneck 22.7946 -5.72874 1.63578
head 11.3728 -2.58507 0.0602746
rclavicle 1.44818e-015 -9.93923e-016
rhumerus -33.7912 -14.1847 -73.1293
rradius 24.3151
rwrist -4.27011
rhand -18.8246 5.8316
rfingers 7.12502
rthumb 7.47445 -24.0163
lclavicle 1.44818e-015 -9.93923e-016
lhumerus -30.4379 18.5306 75.2267
lradius 20.9508
lwrist -1.87521
lhand -12.3917 28.3414
lfingers 7.12502
lthumb 13.6795 57.8718
rfemur -16.0726 -3.36446 19.8218
rtibia 35.3417
rfoot -15.6757 -10.5016
rtoes -5.73543
lfemur -14.67 3.23032 -15.9619
ltibia 35.0719
lfoot -20.7027 5.26194
ltoes -6.47288
513
root 1.28041 17.7318 -5.66467 5.07952 0.654694 -4.91875
lowerback -4.90757 1.8147 -4.09462
upperback -1.60644 2.58539 2.42346
thorax 0.798456 1.31046 4.94288
lowerneck -23.2087 -4.32212 -2.37829
upperneck 22.9425 -5.66962 1.60379
head 11.4294 -2.55768 0.0504751
rclavicle -4.20068e-014 0
rhumerus -33.4304 -13.4668 -73.6107
rradius 24.403
rwrist -4.38626
rhand -18.6119 6.22188
rfingers 7.12502
rthumb 7.67974 -23.6187
lclavicle -4.20068e-014 0
lhumerus -30.3732 18.4649 75.2072
lradius 21.1857
lwrist -0.4025
lhand -13.1758 28.393
lfingers 7.12502
lthumb 12.9237 57.9728
rfemur -15.7333 -3.59045 19.3451
rtibia 34.9052
rfoot -15.732 -10.2348
rtoes -6.52024
lfemur -14.3627 2.91549 -16.4598
ltibia 34.9592
lfoot -20.6744 5.83912
ltoes -6.69172
514
root 1.26718 17.7399 -5.64145 5.27363 0.170607 -5.64267
lowerback -5.53326 2.00857 -3.14467
upperback -1.61251 2.81001 2.55234
thorax 1.15609 1.41301 4.57809
lowerneck -23.2194 -4.32396 -2.35577
upperneck 23.0362 -5.67081 1.55927
head 11.4647 -2.56107 0.0290599
rclavicle -5.61771e-015 -8.74653e-015
rhumerus -33.0803 -12.8924 -74.023
rradius 24.5463
rwrist -4.51807
rhand -18.0958 6.40916
rfingers 7.12502
rthumb 8.17791 -23.4126
lclavicle -5.61771e-015 -8.74653e-015
lhumerus -30.2629 18.9374 74.9267
lradius 21.2724
lwrist -0.23795
lhand -14.1436 28.9654
lfingers 7.12502
lthumb 11.9906 58.602
rfemur -15.6082 -3.70574 20.1165
rtibia 34.4334
rfoot -15.977 -9.6486
rtoes -6.73551
lfemur -14.3113 2.96166 -15.6974
ltibia 34.9217
lfoot -20.7801 6.35001
ltoes -6.98719
515
root 1.24364 17.7506 -5.63206 5.54162 -0.0880133 -6.30156
lowerback -5.78673 2.12069 -2.29045
upperback -1.79195 2.9156 2.61005
thorax 1.14243 1.46841 4.16835
lowerneck -23.2628 -4.30668 -2.27525
upperneck 23.1941 -5.68553 1.57659
head 11.5312 -2.55601 0.0172599
rclavicle 3.40124e-014 2.22639e-014
rhumerus -32.904 -12.2126 -74.6116
rradius 24.8547
rwrist -4.82337
rhand -17.6733 6.21515
rfingers 7.12502
rthumb 8.58566 -23.5903
lclavicle 3.40124e-014 2.22639e-014
lhumerus -30.3868 19.6856 74.2492
lradius 21.3824
lwrist -0.998178
lhand -15.5241 30.1033
lfingers 7.12502
lthumb 10.6592 59.8129
rfemur -15.6017 -3.82053 20.9064
rtibia 33.9335
rfoot -16.0319 -9.20351
rtoes -6.58624
lfemur -14.5077 3.04103 -14.9246
ltibia 34.9629
lfoot -20.8242 6.53723
ltoes -6.76639
516
root 1.21367 17.7544 -5.63737 5.57612 -0.29821 -6.45827
lowerback -5.85865 2.14837 -2.19549
upperback -1.74978 2.94572 2.71661
thorax 1.22242 1.48157 4.23196
lowerneck -23.5068 -4.25985 -2.34505
upperneck 23.2888 -5.58271 1.54835
head 11.6128 -2.51613 0.0296151
rclavicle 6.17785e-015 5.96354e-016
rhumerus -32.3485 -11.1912 -75.2208
rradius 25.2607
rwrist -5.31622
rhand -17.6239 5.60777
rfingers 7.12502
rthumb 8.63332 -24.1957
lclavicle 6.17785e-015 5.96354e-016
lhumerus -30.2444 20.2201 74.1272
lradius 21.5701
lwrist -0.67521
lhand -15.8068 30.1685
lfingers 7.12502
lthumb 10.3865 59.892
rfemur -15.4496 -3.73695 21.1805
rtibia 33.4813
rfoot -15.8415 -8.97285
rtoes -6.09543
lfemur -14.5403 2.85256 -14.6604
ltibia 35.0372
lfoot -20.8215 6.82045
ltoes -6.10857
517
root 1.18327 17.7597 -5.64282 5.56417 -0.581916 -6.6663
lowerback -5.73264 2.21047 -1.95185
upperback -1.82057 3.01393 2.74233
thorax 1.08474 1.51908 4.11701
lowerneck -23.6462 -4.18607 -2.28339
upperneck 23.5064 -5.49312 1.50576
head 11.7173 -2.47229 0.0139997
rclavicle 2.33246e-014 -1.98785e-016
rhumerus -32.0339 -10.2974 -75.9069
rradius 25.6739
rwrist -5.66853
rhand -17.6311 5.19813
rfingers 7.12502
rthumb 8.62635 -24.6056
lclavicle 2.33246e-014 -1.98785e-016
lhumerus -30.2099 20.1035 74.0812
lradius 21.8031
lwrist 0.597762
lhand -14.6336 29.0834
lfingers 7.12502
lthumb 11.5181 58.747
rfemur -15.3078 -3.31586 21.4944
rtibia 33.1621
rfoot -15.6601 -8.85024
rtoes -5.19224
lfemur -14.4912 2.62739 -14.3404
ltibia 35.0734
lfoot -20.78 7.25262
ltoes -6.07459
518
root 1.15335 17.7665 -5.64354 5.62217 -0.900556 -6.77619
lowerback -5.68985 2.27971 -1.84365
upperback -1.93107 3.10115 2.75355
thorax 0.944864 1.5666 4.06717
lowerneck -23.7969 -4.153 -2.30049
upperneck 23.833 -5.46182 1.55485
head 11.8736 -2.44809 0.034081
rclavicle 2.65874e-015 1.72943e-014
rhumerus -31.8403 -9.59559 -76.4159
rradius 25.9348
rwrist -5.70896
rhand -17.4423 5.61134
rfingers 7.12502
rthumb 8.80851 -24.1848
lclavicle 2.65874e-015 1.72943e-014
lhumerus -30.2644 20.218 73.912
lradius 21.9985
lwrist 1.37015
lhand -13.8261 28.5665
lfingers 7.12502
lthumb 12.2968 58.1849
rfemur -15.2712 -2.94531 21.6736
rtibia 32.9512
rfoot -15.6987 -8.61575
rtoes -4.22975
lfemur -14.4683 2.53903 -14.1455
ltibia 35.058
lfoot -20.7162 7.57865
ltoes -5.9567
519
root 1.12423 17.7724 -5.64199 5.63807 -1.16073 -6.84866
lowerback -5.73656 2.34976 -1.74048
upperback -1.95248 3.18944 2.73078
thorax 0.948529 1.61057 3.99215
lowerneck -23.915 -4.12588 -2.25841
upperneck 24.0067 -5.46316 1.62439
head 11.9647 -2.43201 0.048916
rclavicle -6.07505e-014 -3.10104e-014
rhumerus -31.5417 -9.09752 -76.8585
rradius 26.059
rwrist -5.50416
rhand -17.2568 6.40338
rfingers 7.12502
rthumb 8.98751 -23.3852
lclavicle -6.07505e-014 -3.10104e-014
lhumerus -30.2002 20.3422 73.761
lradius 22.2145
lwrist 1.91914
lhand -13.9889 28.9444
lfingers 7.12502
lthumb 12.1398 58.5722
rfemur -15.2083 -2.79579 21.8076
rtibia 32.7812
rfoot -15.7777 -8.34105
rtoes -4.07037
lfemur -14.3837 2.50092 -13.9961
ltibia 35.0259
lfoot -20.6688 7.84336
ltoes -5.81459
